<svg id="svg22" version="1.1" viewBox="0 0 64 64" xmlns="http://www.w3.org/2000/svg"><defs id="defs4"><style id="style2"/></defs><g id="g862" stroke-width=".5" transform="translate(-12.87 -44.132) scale(2.53772)"><path id="path12" fill="#00c492" d="M12.738 38.729a.937.937 0 01-.05-.103 1.314 1.314 0 01-.09-.74h-5.96l8.86-15.593 2.909 5.113.843-1.492-2.535-4.467a1.55 1.55 0 00-1.238-.817 1.378 1.378 0 00-1.2.827L5.298 37.24a1.587 1.587 0 00-.078 1.49 1.381 1.381 0 001.313.633h7.518a1.378 1.378 0 01-1.314-.633z"/><path id="path14" fill="#008776" d="M30.023 37.239l-7.376-12.994a1.554 1.554 0 00-1.243-.827 1.374 1.374 0 00-1.2.825l-.955 1.67.85 1.493 1.313-2.325 7.297 12.804h-2.775a1.243 1.243 0 01-.058.631.8.8 0 01-.057.129l-.024.047a1.588 1.588 0 01-1.338.67h4.341a1.586 1.586 0 001.338-.67 1.378 1.378 0 00-.113-1.453z"/><path id="path16" fill="#2d4a5d" d="M25.795 38.692l.024-.047a.8.8 0 00.057-.129 1.243 1.243 0 00.058-.63 1.92 1.92 0 00-.242-.647l-5.588-9.833-.854-1.492-.849 1.492-5.586 9.833a1.99 1.99 0 00-.216.647 1.314 1.314 0 00.082.74.928.928 0 00.05.103 1.381 1.381 0 001.313.633H24.45a1.592 1.592 0 001.345-.67zM19.249 28.9l5.109 8.986H14.144z"/></g></svg>