<svg fill="none" viewBox="0 0 24 24" xmlns="http://www.w3.org/2000/svg"><path fill="#666" d="M9.89 9.89C10.485 9.298 11.188 9 12 9s1.516.297 2.11.89c.593.594.89 1.297.89 2.11s-.297 1.516-.89 2.11c-.594.593-1.297.89-2.11.89s-1.516-.297-2.11-.89C9.298 13.515 9 12.812 9 12s.297-1.516.89-2.11zm-1.453 5.672c1 .97 2.188 1.454 3.563 1.454s2.547-.485 3.516-1.453c1-1 1.5-2.188 1.5-3.563s-.5-2.547-1.5-3.516c-.97-1-2.141-1.5-3.516-1.5s-2.563.5-3.563 1.5c-.968.97-1.453 2.141-1.453 3.516s.485 2.563 1.454 3.563zm-3.14-9C7.297 5.188 9.53 4.5 12 4.5c2.469 0 4.703.688 6.703 2.063 2 1.375 3.438 3.187 4.313 5.437-.875 2.25-2.313 4.063-4.313 5.438-2 1.375-4.234 2.062-6.703 2.062-2.469 0-4.703-.688-6.703-2.063-2-1.375-3.438-3.187-4.313-5.437.875-2.25 2.313-4.063 4.313-5.438z"/></svg>