<svg fill="none" viewBox="0 0 23 19" xmlns="http://www.w3.org/2000/svg"><path fill="#666" d="M11.86 6H12c.813 0 1.516.297 2.11.89.593.594.89 1.298.89 2.11v.188L11.86 6zm-4.313.797c-.375.75-.563 1.484-.563 2.203 0 1.375.485 2.563 1.454 3.563 1 .968 2.187 1.453 3.562 1.453.719 0 1.453-.188 2.203-.563l-1.547-1.547A2.75 2.75 0 0112 12c-.813 0-1.516-.297-2.11-.89C9.298 10.515 9 9.812 9 9c0-.188.031-.406.094-.656L7.547 6.797zM2.016 1.266L3.28 0 21 17.719l-1.266 1.265c-.156-.156-.656-.64-1.5-1.453l-1.875-1.875c-1.343.563-2.797.844-4.359.844-2.469 0-4.703-.688-6.703-2.063C3.297 13.063 1.859 11.25.984 9c.782-1.938 2.032-3.594 3.75-4.969L3.141 2.438a139.256 139.256 0 00-1.125-1.172zM12 3.984c-.625 0-1.234.125-1.828.375L8.016 2.203C9.234 1.734 10.562 1.5 12 1.5c2.469 0 4.688.688 6.656 2.063 2 1.374 3.438 3.187 4.313 5.437a12.222 12.222 0 01-3.422 4.734l-2.906-2.906c.25-.594.375-1.203.375-1.828 0-1.375-.5-2.547-1.5-3.516-.97-1-2.141-1.5-3.516-1.5z"/></svg>