<svg viewBox="0 0 256 225" xmlns="http://www.w3.org/2000/svg" fill="#fff"><path d="M151.332 57.278h60.217c.122 1.098.188 2.212.188 3.342 0 16.732-13.564 30.296-30.296 30.296s-30.296-13.564-30.296-30.296c-.001-1.13.065-2.244.187-3.342zm60.404-15.689l30.13-14.076-60.822-25.457-60.822 25.456 9.136 4.268v21.441a6.364 6.364 0 00-3.794 5.813V72.03h12.715V59.034a6.363 6.363 0 00-3.795-5.813V34.175l16.66 7.784v7.43h60.592v-7.8zM254 134.356v88.588h-25.422v-81.257c0-2.262-1.482-3.665-3.665-3.665-2.262 0-3.665 1.482-3.665 3.665v81.257h-85.033v-84.936H116.45c-.049 26.525-.174 48.3-.177 48.705h-.012c-.066 4.929-2.019 9.483-5.536 12.843-3.4 3.247-7.855 5.007-12.626 5.007H20.363c-5.058 0-9.77-2.013-13.267-5.668-3.497-3.654-5.299-8.455-5.076-13.52.434-9.833 8.69-17.536 18.796-17.536h8.833c-.21-35.594.041-102.672.041-102.672h30.494V62.99c0-7.02 5.691-12.711 12.711-12.711 7.02 0 12.711 5.691 12.711 12.711v2.176h30.626s.184 22.379.212 32.811l37.115.038 21.367 33.377 2.73-25.032-3.51-8.422h15.752l-3.51 8.422 2.574 24.877 21.367-33.221h7.331c19.964 0 36.34 16.298 36.34 36.34zM83.023 196.673a18.163 18.163 0 01-3.302-9.612c-.189-4.106.954-8.041 3.253-11.334H20.815c-5.776 0-10.672 4.484-10.915 9.995a10.4 10.4 0 002.895 7.717 10.38 10.38 0 007.568 3.234h62.66zm25.399-123.617H37.531c-.198 34.102-.196 60.501.006 94.782h59.014v8.009a10.358 10.358 0 00-6.064 3.121 10.4 10.4 0 00-2.886 7.731c.246 5.34 4.621 9.716 9.962 9.961 2.932.14 5.674-.863 7.713-2.811 2.004-1.914 3.109-4.54 3.109-7.391h.001c.023-4.189.4-72.356.036-113.402z"/></svg>