<svg viewBox="0 0 511 511" xmlns="http://www.w3.org/2000/svg" fill="#fff"><path d="M471.5 104H351V81.495c7.048-2.408 12.782-8.111 15.002-15.478a23.35 23.35 0 00-1.8-17.895c-2.971-5.53-7.917-9.573-13.927-11.382C322.59 28.405 289.817 24 255.5 24s-67.09 4.405-94.775 12.74a23.341 23.341 0 00-13.927 11.382c-2.97 5.53-3.609 11.885-1.799 17.899a23.37 23.37 0 0011.409 13.943A23.714 23.714 0 00160 81.515V104H39.5C17.72 104 0 121.72 0 143.5v139.209c0 12.653 6.07 24.305 16 31.709V447.5c0 21.78 17.72 39.5 39.5 39.5h400c21.78 0 39.5-17.72 39.5-39.5V314.418c9.93-7.404 16-19.056 16-31.709V143.5c0-21.78-17.72-39.5-39.5-39.5zM160.013 55.22a8.44 8.44 0 015.036-4.116C191.35 43.186 222.627 39 255.5 39s64.15 4.186 90.452 12.104a8.443 8.443 0 015.036 4.116c1.075 2 1.306 4.3.652 6.472-1.074 3.565-4.418 6.055-8.131 6.055-.83 0-1.654-.122-2.458-.365C316.326 59.936 286.744 56 255.5 56s-60.826 3.936-85.56 11.384a8.401 8.401 0 01-6.447-.642 8.466 8.466 0 01-4.132-5.049 8.445 8.445 0 01.652-6.473zM175 81.535C198.197 74.645 226.006 71 255.5 71c29.496 0 57.308 3.646 80.5 10.535V104H175V81.535zM455.5 472h-400C41.991 472 31 461.009 31 447.5V322.014c61.606 25.367 126.462 40.001 193 43.547v1.938c0 17.369 14.131 31.5 31.5 31.5s31.5-14.131 31.5-31.5v-1.939c66.539-3.547 131.395-18.18 193-43.547V447.5c0 13.509-10.991 24.5-24.5 24.5zM336 345.757a576.509 576.509 0 01-49.024 4.781C286.464 333.613 272.546 320 255.5 320s-30.964 13.613-31.476 30.538A576.509 576.509 0 01175 345.757V279.5c0-9.098 7.402-16.5 16.5-16.5h128c9.098 0 16.5 7.402 16.5 16.5v66.257zm-64 5.743v16c0 9.098-7.402 16.5-16.5 16.5s-16.5-7.402-16.5-16.5v-16c0-9.098 7.402-16.5 16.5-16.5s16.5 7.402 16.5 16.5zm224-68.791c0 9.863-5.965 18.777-15.198 22.71-41.862 17.834-85.305 30.545-129.802 38.024V279.5c0-17.369-14.131-31.5-31.5-31.5h-128c-17.369 0-31.5 14.131-31.5 31.5v63.943c-44.497-7.478-87.939-20.19-129.802-38.024C20.965 301.486 15 292.572 15 282.709V143.5c0-13.509 10.991-24.5 24.5-24.5h432c13.509 0 24.5 10.991 24.5 24.5v139.209z"/></svg>